<svg version="1.2" xmlns="http://www.w3.org/2000/svg" viewBox="0 0 161 48" width="161" height="48">
    <path id="LOCALS" fill="#0f0e0c" aria-label="LOCALS"
          d="m48.1 26.4v-4.2q-0.9 0-1.4 0.2-0.6 0.2-0.6 0.9h-0.5q-0.1-0.7-0.1-1.1 0-0.7 0.4-1.3 0.5-0.5 1.2-0.5h1v-1.5q0-2.2 2.9-3.3v0.5q-0.5 0.2-0.6 0.6-0.1 0.3-0.1 0.8v7.7q0 0.7-0.4 1.2-0.4 0.6-1 1-0.7 0.5-1.8 1v-0.5q0.6-0.4 0.8-0.8 0.2-0.3 0.2-0.7zm12.9-12.8l-3.3 2.2q-0.4-1.4-0.9-1.8-0.5-0.4-1.3-0.4-1.6 0.1-1.6 2.3v8.1q0 1.9-2.9 3.1l-0.1-0.3q0.8-0.7 0.8-2.3v-7.3q0-0.8 0.5-1.5 0.4-0.8 1.2-1.4 0.7-0.7 1.6-1.1 1-0.4 1.9-0.4 1.2 0 2.8 1.1l1.1-0.7zm-15.9 3.5l-0.2 0.5q-0.5 0-1.1-0.6-0.5-0.5-0.5-1.1 0-1.4 1-2.2 0.9-0.9 2.3-0.9 0.7 0 1.1 0.2 0.4 0.1 0.9 0.3 0.5 0.3 0.8 0.4 0.3 0.1 0.8 0.1 1.1 0 2.5-1l0.3 0.3q-2.2 2.3-4.6 2.3-0.4 0-0.8-0.1-0.5-0.1-1-0.3-0.5-0.1-0.9-0.2-0.4-0.1-0.7-0.1-1.2 0-1.3 1.1 0 0.5 0.4 0.9 0.4 0.4 1 0.4zm4.6 18.1l-0.1 0.4q-0.2 0-0.6 0.1-0.3 0-0.6 0-0.8 0-1.5-0.3-0.8-0.4-1.2-1-0.4-0.7-0.4-1.6 0-1.4 0.9-2.4 0.9-1.1 2.4-1.7 1.5-0.7 3.2-1 1.7-0.4 3.4-0.4 1.5 0 3.1 0.5v-8q-0.3-0.1-0.3-0.4 0-0.4 0.5-0.4 0.3 0 0.4 0.1 0.2 0.1 0.2 0.3 0 0.3-0.4 0.4v8.2l1.7 0.7 0.8-0.5 0.2 0.4-2.7 2h-0.4q-1.6-0.9-3.3-1.3-1.7-0.4-3.2-0.4-1.5 0.1-2.9 0.6-1.5 0.5-2.3 1.3-0.9 0.9-0.9 2 0 1 0.8 1.7 0.8 0.7 2.1 0.7 0.7 0 1.1 0zm23.2-5.1v-15.4l-1.5 0.8v10.3q0 1-0.8 1.7-0.7 0.7-1.8 1l-0.5-0.3q0.5-0.4 0.7-0.9 0.2-0.4 0.2-1.1v-9.7l-1.7 0.8-0.2-0.4 5.6-2.7v-1.4h0.5v1.1l2.2-1.1h0.4q1.5 1 2.5 1.9 1 1 1.6 2 0.5 1 0.7 2 0.2 1.1 0.2 2.3 0 2.7-1.1 4.9-1.2 2.2-3.2 3.4-2.1 1.3-4.8 1.3-2.6 0-4.7-1.1-2.1-1.1-3.4-3.1-1.2-1.9-1.2-4.3 0-1.1 0.4-2.3 0.4-1.2 1.2-2.4 0.8-1.2 2.1-2.3 1.4-1.1 3.2-1.9l0.1 0.4q-2.3 1.1-3.3 3.2-0.9 2.1-0.9 5.6 0 2.2 0.5 3.7 0.5 1.4 1.5 2.3 1 0.9 2.4 1.3 1.4 0.4 3.1 0.4zm5.4-4.8q-0.4-0.4-1.1-0.6-0.7-0.2-1.3-0.2-1.4 0-2.5 0.5v5.1q1.1-0.1 2.1-0.8 1.1-0.7 1.8-1.8 0.8-1 1-2.2zm0.3-5.7q-1.2 0.5-2.7 0.5-1.4 0-2.5-0.5v4.8q1.2-0.3 2.5-0.3 1.4 0 2.6 0.7 0.4-1.8 0.4-2.9 0-0.8-0.3-2.3zm-0.1-0.5q-0.4-1-1.1-1.9-0.7-1-1.7-1.8-0.9-0.7-2-1.1l-0.3 0.2v4.6q1.2 0.5 2.5 0.5 0.1 0 0.2 0.1 1.3-0.1 2.4-0.6zm16.2 9.7v-13.3q-0.7 0-1.4-0.3-0.8-0.2-1.2-0.7l-0.9 0.6v9q0 0.7-0.3 1.4-0.3 0.7-0.9 1.2-0.6 0.5-1.4 0.6l-0.1-0.4q0.4-0.3 0.5-0.7 0.1-0.4 0.1-1.4v-8l-2.6 1.9v-0.5l7-5.4h0.3q1.1 0.8 2.2 0.8 1 0 2.1-0.6l0.2 0.3q-0.4 0.7-1.3 1.4-0.8 0.6-1.8 0.8v13.1q1.5-0.5 3.3-2.1l0.3 0.3q-1.7 2.2-3.5 3-1.8 0.8-4.1 0.8-2 0-3.9-0.8-1.8-0.8-2.8-2.3-1.6-2-1.6-5.1 0-1.7 0.6-3.4 0.6-1.7 2-3.2 1.4-1.5 3.7-2.4l0.1 0.3q-2.1 1-3.2 3-1 1.9-1 4.1 0 1 0.2 2.1 0.2 1 0.6 2 0.4 1 1 1.7 2.1 2.4 5.9 2.4 1.5-0.1 1.9-0.2zm16.4-12.9l-3.2 7h6.1zm3.8 9h-7.7l-1.4 3q3 0 4.2 1l1.5-0.9 0.3 0.3-3.5 2.4h-0.6q-1.5-1.1-3.7-1.1-0.8 0-1.7 0.3-0.8 0.3-1.3 1-0.6 0.6-0.6 1.6 0 1.4 1.3 2.1 1.3 0.7 3.2 0.7 1.3 0 2.3-0.2l0.2 0.5q-1.7 0.2-2.3 0.2-2.1 0-3.6-0.8-1.5-0.7-1.5-2.5 0-1.3 0.8-2.3 0.8-1.1 2-1.7 1.3-0.6 2.4-0.6l3.6-8q-0.6-0.8-1.6-0.8-1.1 0-1.7 1.1l-0.4-0.2q0.4-1.5 1.2-2.1 0.8-0.6 1.8-0.6 0.9 0 1.6 0.4l1.1-2.1q-0.9-0.7-2.2-0.7-1.4 0-2.7 1.2l-0.3-0.2q0.6-1.5 1.7-2.2 1.1-0.8 2.3-0.8 1.1 0 2.2 0.8l0.5-0.8h0.3q0.3 1.6 1.1 3.7l4.5 10.6q0.4 1.3 1.3 1.7l0.7-0.4 0.3 0.3q-0.4 0.3-1.3 0.9-0.8 0.6-1.2 1h-0.5q-0.4-0.4-0.7-1-0.4-0.6-0.7-1.4-0.3-0.8-0.6-1.6-0.3-0.8-0.6-1.8zm11.2 1.6v-4.2q-0.9 0-1.4 0.2-0.5 0.2-0.5 1h-0.6q-0.1-0.7-0.1-1.2 0-0.7 0.4-1.3 0.5-0.5 1.2-0.5h1v-1.5q0-2.2 2.9-3.3v0.5q-0.5 0.2-0.6 0.6-0.1 0.3-0.1 0.9v7.6q0 0.7-0.4 1.3-0.4 0.5-1 1-0.7 0.4-1.8 0.9v-0.5q0.6-0.4 0.8-0.7 0.2-0.4 0.2-0.8zm12.9-12.8l-3.3 2.2q-0.4-1.4-0.9-1.8-0.5-0.4-1.3-0.4-1.6 0.1-1.6 2.3v8.2q0 1.8-2.9 3l-0.1-0.3q0.8-0.7 0.8-2.3v-7.3q0-0.7 0.5-1.5 0.4-0.8 1.2-1.4 0.7-0.7 1.6-1.1 1-0.4 1.9-0.4 1.2 0 2.8 1.1l1.1-0.7zm-15.8 3.5l-0.3 0.5q-0.5 0-1.1-0.5-0.5-0.6-0.5-1.2 0-1.4 1-2.2 0.9-0.9 2.3-0.9 0.7 0 1.1 0.2 0.4 0.1 0.9 0.3 0.5 0.3 0.8 0.4 0.3 0.1 0.8 0.1 1.1 0 2.5-1l0.3 0.3q-2.2 2.3-4.5 2.3-0.5 0-0.9-0.1-0.5-0.1-1-0.3-0.5-0.1-0.9-0.2-0.4-0.1-0.7-0.1-1.2 0-1.3 1.1 0 0.5 0.4 0.9 0.4 0.4 1.1 0.4zm4.5 18.1l-0.1 0.4q-0.2 0-0.5 0.1-0.4 0-0.6 0-0.9 0-1.6-0.3-0.8-0.4-1.2-1-0.4-0.7-0.4-1.6 0-1.4 0.9-2.4 0.9-1.1 2.4-1.7 1.5-0.7 3.2-1 1.7-0.4 3.4-0.4 1.5 0 3.1 0.5v-8q-0.2-0.1-0.2-0.4 0-0.4 0.4-0.4 0.3 0 0.4 0.1 0.2 0.1 0.2 0.3 0 0.3-0.4 0.4v8.2l1.7 0.7 0.8-0.5 0.3 0.4-2.8 2h-0.4q-1.6-0.8-3.3-1.3-1.7-0.4-3.2-0.4-1.5 0.1-2.9 0.6-1.4 0.5-2.3 1.3-0.9 0.9-0.9 2 0 1 0.8 1.7 0.8 0.7 2.1 0.7 0.7 0 1.1 0zm21-6.5q-0.5-0.2-1.3-0.3-0.9-0.1-1.3-0.1-1.4 0-2.9 0.6-1.4 0.5-2.5 1.6-1 1-1 2.3 0 1.3 1.4 1.3 1.2 0 2.5-0.7 1.3-0.7 2.6-1.9 1.3-1.3 2.5-2.8zm0.5 0.1q-1.1 1.4-2.1 2.5-1.1 1.1-2.1 1.8-1 0.8-2 1.1-0.9 0.4-1.8 0.4-2-0.1-2-1.8 0-1.8 1.6-3.3 0.8-0.8 2-1.4 1.3-0.7 2.6-1 1.4-0.4 2.7-0.4 0.8 0 2 0.2l1.7-2.6q-3.3-0.7-4.8-1.1-1.5-0.5-2.5-1.4-1-0.9-1-2.1 0-0.9 0.7-1.9l0.4 0.2q-0.1 0.4-0.1 0.6 0 0.8 0.7 1.4 0.8 0.6 2 1 1.2 0.4 2.5 0.7 1.4 0.3 3.2 0.7l0.8-1.1q-0.3-0.1-1.3-0.3-1-0.2-1.9-0.4-0.9-0.2-1.6-0.5-1.6-0.5-2.5-1.3-0.9-0.8-0.9-2.2 0-1.2 0.8-2.1 0.9-0.8 2.2-1.2 1.2-0.5 2.4-0.5 3 0 5.1 1.7l1.7-1.2 0.3 0.4-4.2 2.9q-0.7-1-1.4-1.6-0.7-0.7-1.3-0.9-0.7-0.3-1.5-0.3-1.3 0-2.1 0.5-0.9 0.6-0.9 1.5 0.1 0.8 1.2 1.5 0.7 0.4 1.6 0.7 0.9 0.3 1.8 0.5 0.9 0.3 2.1 0.5 1.3 0.3 1.7 0.4 1-1.2 1.8-1.9 0.7-0.8 1.5-1.3 0.7-0.6 1.7-1l0.2 0.4q-1 0.5-1.7 1-0.8 0.6-1.4 1.2-0.6 0.7-1.5 1.7 2.7 0.7 3.7 1.7 1 1.1 1 2.9 0 1-0.7 1.9-0.8 1-1.7 1.8-1 0.7-2.3 1.6-1.3 0.9-1.7 1.2h-0.8q-1.5-1-3.9-1.8zm7.2-1.5l-0.3-0.2q0.5-0.4 0.5-0.8 0-0.5-0.7-0.8-0.7-0.3-2-0.6-1.3-0.4-1.6-0.5l-1.7 2.6q2 0.3 4.6 2.1 2-1.3 3-2.3 0.9-1 0.9-1.9 0-1.3-1.1-2.1-1.1-0.8-3.9-1.4l-0.6 1q0.7 0.2 1.5 0.5 0.9 0.2 1.5 0.5 0.6 0.3 0.9 0.7 0.4 0.5 0.4 1.2 0 1.1-1.4 2z"/>
    <circle fill="none" stroke="#0f0e0c" cx="17" cy="27" r="15"/>
    <circle fill="none" stroke="#0f0e0c" cx="25" cy="21" r="15"/>
</svg>